<svg xmlns="http://www.w3.org/2000/svg" width="118" height="36.219" viewBox="0 0 118 36.219">
  <g id="FEATURES" transform="translate(-901 -1132.781)">
    <rect id="Rectangle_25" data-name="Rectangle 25" width="118" height="8" transform="translate(901 1161)" fill="#4285f4" opacity="0.96"/>
    <path id="Path_12" data-name="Path 12" d="M-57.266-30.719h10.906v3.547h-7.3v10.063h6.281v3.563h-6.281V.063h-3.609ZM-33.5-17.109v3.563h-6.281V-3.484h7.3V.063H-43.391V-30.719h10.906v3.547h-7.3v10.063Zm16.078,6.453L-15.984.063h-3.672l-.891-6.734h-5.516L-26.969.063h-3.641L-29.2-10.594l3.172-20.125h5.453Zm-3.594.422-2.3-17.391-2.3,17.391ZM-2.875-30.719v3.547H-7.156V.063h-3.609V-27.172h-4.3v-3.547ZM11.969-5.625q0,6.188-6.094,6.2-6.094,0-6.094-6.2V-30.734H3.391V-5.625q0,2.641,2.484,2.641T8.359-5.625V-30.734h3.609Zm3.906-25.094h6.188q5.609.016,5.609,6.2v4.766a5.171,5.171,0,0,1-3.734,5.234L29.016.063H25.031L20.891-13.953l-1.406.188V.063H15.875Zm3.609,3.547v10.063h1.531a5.081,5.081,0,0,0,1.5-.156,2.439,2.439,0,0,0,1.547-2.484v-4.766q0-2.656-2.469-2.656ZM41.406-17.109v3.563H35.125V-3.484h7.3V.063H31.516V-30.719H42.422v3.547h-7.3v10.063Zm3.984-7.937q0-6.172,6.094-6.172t6.094,6.172v3.8H53.969v-3.8q0-2.609-2.469-2.625h-.031Q49-27.672,49-25.047v2.891q0,2.359,4.5,5.578,4.078,2.922,4.078,6.953v4.016Q57.578.578,51.5.578,45.391.562,45.391-5.609v-3.8H49v3.8q0,2.625,2.5,2.625,2.469,0,2.469-2.625V-9.234q0-2.547-4.5-5.766-4.078-2.922-4.078-7.062Z" transform="translate(960 1164)"/>
  </g>
</svg>
