<svg xmlns="http://www.w3.org/2000/svg" width="299.201" height="26.028" viewBox="0 0 299.201 26.028">
  <g id="Logo" transform="translate(-748 -676.824)">
    <path id="Path_5" data-name="Path 5" d="M6.732-18.518H4.5V-36.378H8.419L24.79-20.751V-36.378h2.232v17.859H24.046l-17.313-16Zm61.2-4.093H53.963l-2.331,4.093H49.049l10.19-17.859h3.2L72.6-18.518H70.256Zm-1.055-1.86L60.961-34.9l-5.939,10.43Zm46.239-11.906h2.3l-9.37,17.859h-3.274L93.4-36.378h2.592l8.566,16.365Zm24.631,0h2.232v17.859h-2.232ZM182.855-30.8a6.524,6.524,0,0,0-.3-2.209,2.331,2.331,0,0,0-1-1.232,4.442,4.442,0,0,0-1.836-.535q-1.14-.117-2.815-.117h-5.976q-1.488,0-2.506.087a5.891,5.891,0,0,0-1.68.355,2.268,2.268,0,0,0-1.023.767,3.364,3.364,0,0,0-.523,1.326,11.892,11.892,0,0,0-.186,2.029q-.022,1.2-.022,2.877t.029,2.877a12.234,12.234,0,0,0,.192,2.029,3.423,3.423,0,0,0,.517,1.326,2.232,2.232,0,0,0,1.017.767,5.891,5.891,0,0,0,1.68.355q1.016.087,2.5.087h5.988q1.3,0,2.244-.07a8.285,8.285,0,0,0,1.6-.256,2.99,2.99,0,0,0,1.07-.511,2.215,2.215,0,0,0,.634-.82,3.951,3.951,0,0,0,.308-1.186,14.085,14.085,0,0,0,.081-1.622v-1.116H173.9v-1.86h11.185v2.977a13.26,13.26,0,0,1-.139,2.017,5.369,5.369,0,0,1-.5,1.6,3.919,3.919,0,0,1-.947,1.215,4.786,4.786,0,0,1-1.5.843,9.937,9.937,0,0,1-2.162.488,23.937,23.937,0,0,1-2.93.157h-5.988a20.054,20.054,0,0,1-3.447-.248,7.433,7.433,0,0,1-2.308-.756,3.857,3.857,0,0,1-1.4-1.273,5.458,5.458,0,0,1-.718-1.8,12.538,12.538,0,0,1-.261-2.337q-.035-1.3-.035-2.883t.035-2.883a12.538,12.538,0,0,1,.261-2.337,5.458,5.458,0,0,1,.721-1.8,3.857,3.857,0,0,1,1.4-1.273,7.433,7.433,0,0,1,2.308-.756,20.054,20.054,0,0,1,3.447-.248H176.9a23.938,23.938,0,0,1,2.93.157,10.455,10.455,0,0,1,2.162.477,4.983,4.983,0,0,1,1.506.808,3.77,3.77,0,0,1,.953,1.151,4.845,4.845,0,0,1,.5,1.5,11.364,11.364,0,0,1,.139,1.86Zm73.52-5.581h2.232v17.859h-2.232Zm39.13,16q1.477,0,2.5-.081a6.258,6.258,0,0,0,1.687-.331,2.228,2.228,0,0,0,1.022-.727,3.178,3.178,0,0,0,.529-1.262,10.657,10.657,0,0,0,.2-1.93q.029-1.145.029-2.738t-.029-2.738a10.668,10.668,0,0,0-.2-1.93,3.179,3.179,0,0,0-.529-1.262,2.228,2.228,0,0,0-1.023-.727,6.242,6.242,0,0,0-1.68-.331q-1.018-.081-2.506-.081H284.354V-20.38Zm-13.383,1.86V-36.378h13.383a21.012,21.012,0,0,1,3.447.238,7.64,7.64,0,0,1,2.314.727,3.833,3.833,0,0,1,1.407,1.221,5.074,5.074,0,0,1,.72,1.727,11.871,11.871,0,0,1,.267,2.244q.041,1.25.041,2.773t-.041,2.773a11.871,11.871,0,0,1-.267,2.244,5.073,5.073,0,0,1-.721,1.726,3.833,3.833,0,0,1-1.407,1.221,7.64,7.64,0,0,1-2.313.727,21.011,21.011,0,0,1-3.447.238Z" transform="translate(743.5 713.573)" fill="#f2f2f2"/>
    <g id="navigation" transform="matrix(0.966, 0.259, -0.259, 0.966, 954.165, 672.619)">
      <path id="Path_8" data-name="Path 8" d="M17.372,3.494,4.909,9.4l5.248,1.312,1.312,5.248,5.9-12.464M20.867,0,18.874,4.206,12.97,16.67l-1.988,4.2L9.856,16.361l-1.07-4.28-4.28-1.07L0,9.884,4.2,7.9l12.464-5.9Z" transform="translate(0 10.433) rotate(-30)" fill="#4285f4"/>
    </g>
  </g>
</svg>
