<svg xmlns="http://www.w3.org/2000/svg" width="118" height="35.719" viewBox="0 0 118 35.719">
  <g id="The_team_w" data-name="The team w" transform="translate(-901 -2115.281)">
    <rect id="Rectangle_29" data-name="Rectangle 29" width="118" height="8" transform="translate(901 2143)" fill="#4285f4" opacity="0.96"/>
    <path id="Path_14" data-name="Path 14" d="M-46.484-30.719v3.547h-4.281V.063h-3.609V-27.172h-4.3v-3.547Zm2.813,0h3.609v13.609h4.969V-30.719h3.609V.063h-3.609V-13.547h-4.969V.063h-3.609Zm26.141,13.609v3.563h-6.281V-3.484h7.3V.063H-27.422V-30.719h10.906v3.547h-7.3v10.063ZM5.641-30.719v3.547H1.359V.063H-2.25V-27.172h-4.3v-3.547Zm12.7,13.609v3.563H12.063V-3.484h7.3V.063H8.453V-30.719H19.359v3.547h-7.3v10.063Zm16.078,6.453L35.859.063H32.188L31.3-6.672H25.781L24.875.063H21.234l1.406-10.656,3.172-20.125h5.453Zm-3.594.422-2.3-17.391-2.3,17.391ZM48-7.422l5.719-23.3h3.7V.063H54v-21.8L49.219.063H46.891L41.984-21.625V.063H38.516V-30.719h3.719Z" transform="translate(960 2146)" fill="#f2f2f2"/>
  </g>
</svg>
