<svg xmlns="http://www.w3.org/2000/svg" width="178" height="36.219" viewBox="0 0 178 36.219">
  <g id="WSO" transform="translate(-871 -1894.781)">
    <rect id="Rectangle_26" data-name="Rectangle 26" width="178" height="8" transform="translate(871 1923)" fill="#4285f4" opacity="0.96"/>
    <path id="Path_13" data-name="Path 13" d="M-70.477-3.031l3.656-27.687h3.656L-64.586-20-67.742.063H-73.18l-2.8-19.312L-78.773.063h-5.453L-87.4-20.031-88.8-30.719h3.625l3.672,27.688,3.656-27.687h3.7Zm19.859-14.078v3.563H-56.9V-3.484h7.3V.063H-60.508V-30.719H-49.6v3.547h-7.3v10.063ZM-38.7-25.047q0-6.172,6.094-6.172t6.094,6.172v3.8h-3.609v-3.8q0-2.609-2.469-2.625h-.031q-2.469,0-2.469,2.625v2.891q0,2.359,4.5,5.578,4.078,2.922,4.078,6.953v4.016q0,6.188-6.078,6.188Q-38.7.562-38.7-5.609v-3.8h3.609v3.8q0,2.625,2.5,2.625,2.469,0,2.469-2.625V-9.234q0-2.547-4.5-5.766Q-38.7-17.922-38.7-22.062Zm26.875-5.672v3.547H-16.1V.063h-3.609V-27.172h-4.3v-3.547ZM1.93-10.656,3.367.063H-.3L-1.2-6.672H-6.711L-7.617.063h-3.641l1.406-10.656L-6.68-30.719h5.453Zm-3.594.422-2.3-17.391-2.3,17.391ZM6.023-30.719h3.7L14.945-8.609V-30.656l3.266-.047V.063h-3.7L9.461-21.5V.063H6.023Zm16.25,0h6.578q5.609.016,5.609,6.2V-6.125q0,6.172-5.922,6.188H22.273Zm3.609,3.547V-3.484h2.5q2.469,0,2.469-2.641V-24.516q0-2.656-2.469-2.656ZM58.023-5.609q0,6.172-6.094,6.188-6.094,0-6.094-6.187V-25.047q0-6.172,6.094-6.172t6.094,6.172ZM54.414-25.047q0-2.609-2.469-2.625h-.031q-2.469,0-2.469,2.625V-5.609q0,2.625,2.484,2.625t2.484-2.625ZM73.8-5.625q0,6.188-6.094,6.2-6.094,0-6.094-6.2V-30.734h3.609V-5.625q0,2.641,2.484,2.641T70.2-5.625V-30.734H73.8ZM88.648-30.719v3.547H84.367V.063H80.758V-27.172h-4.3v-3.547Z" transform="translate(960 1926)"/>
  </g>
</svg>
